<svg width="20" height="20" viewBox="0 0 20 20" fill="none" xmlns="http://www.w3.org/2000/svg">
<path fill-rule="evenodd" clip-rule="evenodd" d="M4.48311 0.815291C0.811517 1.99738 -0.826136 6.00569 0.40482 9.82952C1.02947 11.6301 2.04534 13.2485 3.38004 14.5762C5.21101 16.3545 7.22254 17.9194 9.38488 19.2491L9.63044 19.3961C9.86561 19.5369 10.1598 19.5344 10.3926 19.3897L10.6218 19.2473C12.7812 17.9194 14.7927 16.3545 16.6174 14.5824C17.9584 13.2485 18.9743 11.6301 19.5937 9.84515C20.8291 6.00801 19.1847 1.9978 15.512 0.81535L15.2463 0.736231C13.5624 0.273087 11.773 0.501301 10.2645 1.35535L9.99639 1.51429L9.73299 1.35623C8.14194 0.45344 6.2404 0.250031 4.48311 0.815291ZM9.37465 2.85427L9.57138 2.99538C9.83072 3.18111 10.1806 3.17742 10.436 2.98625C11.766 1.99057 13.4873 1.70082 15.0641 2.20669C17.9097 3.12284 19.2047 6.28096 18.2064 9.38199C17.665 10.9417 16.7687 12.3696 15.5916 13.5405L15.0636 14.0421C13.641 15.3642 12.1026 16.561 10.4691 17.6156L10.0013 17.9098L10.144 17.9998C8.08049 16.7308 6.15375 15.2319 4.40582 13.5343C3.23505 12.3696 2.33877 10.9417 1.79207 9.36635C0.798077 6.27801 2.08746 3.12212 4.93153 2.20646C6.43331 1.72339 8.07056 1.96289 9.37465 2.85427ZM13.8703 4.48374C13.4855 4.36093 13.0739 4.57304 12.951 4.95749C12.8281 5.34194 13.0404 5.75316 13.4252 5.87597C14.1814 6.11735 14.7206 6.79803 14.7881 7.60096C14.822 8.00313 15.1757 8.30175 15.5782 8.26794C15.9807 8.23413 16.2796 7.8807 16.2457 7.47853C16.1288 6.08859 15.1917 4.90551 13.8703 4.48374Z" fill="#9E9E9E"/>
</svg>
