<svg width="20" height="20" viewBox="0 0 20 20" fill="none" xmlns="http://www.w3.org/2000/svg">
<g clip-path="url(#clip0_1_9)">
<path fill-rule="evenodd" clip-rule="evenodd" d="M18.3394 5.65929C19.0094 6.17829 19.4204 6.94929 19.4904 7.78829L19.5004 7.98929V16.0983C19.5004 18.1883 17.8494 19.8883 15.7804 19.9983H13.7904C12.8394 19.9793 12.0704 19.2393 12.0004 18.3093L11.9904 18.1683V15.3093C11.9904 14.9983 11.7594 14.7393 11.4504 14.6883L11.3604 14.6783H8.68937C8.37037 14.6883 8.11037 14.9183 8.07037 15.2183L8.06037 15.3093V18.1593C8.06037 18.2183 8.04937 18.2883 8.04037 18.3383L8.03037 18.3593L8.01937 18.4283C7.90037 19.2793 7.20037 19.9283 6.33037 19.9893L6.20037 19.9983H4.41037C2.32037 19.9983 0.610366 18.3593 0.500366 16.2983V7.98929C0.509366 7.13829 0.880366 6.34829 1.50037 5.79829L7.73037 0.788294C9.00037 -0.220706 10.7804 -0.260706 12.0894 0.668294L12.2504 0.788294L18.3394 5.65929Z" fill="#06C149"/>
</g>
<defs>
<clipPath id="clip0_1_9">
<rect width="20" height="20" fill="white"/>
</clipPath>
</defs>
</svg>
