<svg width="20" height="20" viewBox="0 0 20 20" fill="none" xmlns="http://www.w3.org/2000/svg">
<path fill-rule="evenodd" clip-rule="evenodd" d="M10.0002 0.000183105C4.47736 0.000183105 0.000244141 4.47764 0.000244141 10.0002C0.000244141 15.5227 4.47736 20.0002 10.0002 20.0002C15.5225 20.0002 20.0002 15.5224 20.0002 10.0002C20.0002 4.47797 15.5225 0.000183105 10.0002 0.000183105ZM10.0002 1.50018C14.694 1.50018 18.5002 5.3064 18.5002 10.0002C18.5002 14.694 14.694 18.5002 10.0002 18.5002C5.30582 18.5002 1.50024 14.6943 1.50024 10.0002C1.50024 5.30604 5.30582 1.50018 10.0002 1.50018ZM4.32274 10.0004C4.32274 10.6604 4.85974 11.1974 5.52074 11.1974C6.18174 11.1974 6.71874 10.6604 6.71874 10.0004C6.71874 9.34038 6.18174 8.80238 5.52074 8.80238C4.85974 8.80238 4.32274 9.34038 4.32274 10.0004ZM10.0002 11.1974C9.33924 11.1974 8.80224 10.6604 8.80224 10.0004C8.80224 9.34038 9.33924 8.80238 10.0002 8.80238C10.6612 8.80238 11.1982 9.34038 11.1982 10.0004C11.1982 10.6604 10.6612 11.1974 10.0002 11.1974ZM13.2812 10.0004C13.2812 10.6604 13.8182 11.1974 14.4792 11.1974C15.1402 11.1974 15.6772 10.6604 15.6772 10.0004C15.6772 9.34038 15.1402 8.80238 14.4792 8.80238C13.8182 8.80238 13.2812 9.34038 13.2812 10.0004Z" fill="#200E32"/>
</svg>
