<svg width="18" height="20" viewBox="0 0 18 20" fill="none" xmlns="http://www.w3.org/2000/svg">
<path fill-rule="evenodd" clip-rule="evenodd" d="M5.13776 20C4.72576 20 4.33476 19.968 3.96676 19.905L3.74876 19.864C1.37776 19.371 -0.000244141 17.555 -0.000244141 14.791V5.209C-0.000244141 4.875 0.0197559 4.555 0.0597559 4.249C0.408756 1.564 2.25376 0 5.13776 0H12.8628C16.0588 0 17.9698 1.92 17.9998 5.132V5.209V14.791C17.9998 18.048 16.0838 20 12.8628 20H5.13776ZM5.13776 1.457C2.68176 1.457 1.43676 2.72 1.43676 5.209V14.791C1.43676 17.28 2.68176 18.543 5.13776 18.543H12.8538C15.3088 18.543 16.5458 17.28 16.5458 14.791V5.209C16.5458 2.72 15.3088 1.457 12.8538 1.457H5.13776ZM13.3058 14.234C13.3058 13.834 12.9868 13.51 12.5928 13.51H5.38176C4.98776 13.51 4.66776 13.834 4.66776 14.234C4.66776 14.634 4.98776 14.958 5.38176 14.958H12.5928C12.9868 14.958 13.3058 14.634 13.3058 14.234ZM12.5928 9.271C12.8678 9.241 13.1368 9.373 13.2838 9.61C13.4308 9.849 13.4308 10.151 13.2838 10.39C13.1368 10.627 12.8678 10.759 12.5928 10.729H5.38176C5.01576 10.687 4.73876 10.374 4.73876 10C4.73876 9.626 5.01576 9.312 5.38176 9.271H12.5928ZM8.77676 5.771C8.77676 5.397 8.49976 5.083 8.13376 5.042H5.39076C5.02376 5.083 4.74676 5.397 4.74676 5.771C4.74676 6.144 5.02376 6.458 5.39076 6.499H8.13376C8.49976 6.458 8.77676 6.144 8.77676 5.771Z" fill="#9E9E9E"/>
</svg>
