<svg width="20" height="20" viewBox="0 0 20 20" fill="none" xmlns="http://www.w3.org/2000/svg">
<g clip-path="url(#clip0_3_2)">
<path fill-rule="evenodd" clip-rule="evenodd" d="M10 0C4.47716 0 0 4.47716 0 10C0 15.5228 4.47716 20 10 20C15.5228 20 20 15.5228 20 10C20 4.47716 15.5228 0 10 0ZM8.87143 6.05448L8.76739 6.04458C8.57033 6.03782 8.36706 6.08728 8.18786 6.18396C7.95591 6.30813 7.76867 6.50935 7.66487 6.75848C7.61715 6.87381 7.53463 7.22982 7.49752 7.43659C7.40433 7.94473 7.35013 8.7262 7.34094 9.58378L7.33956 9.87219C7.33858 10.7821 7.38882 11.6482 7.48165 12.2188L7.53254 12.481C7.58321 12.7141 7.65053 12.9625 7.70447 13.0673C7.91026 13.4648 8.32889 13.7104 8.7738 13.6962C8.96355 13.692 9.36217 13.5595 9.63937 13.4431C10.6376 13.0232 12.3957 11.8463 13.208 11.0527L13.4777 10.772C13.581 10.6616 13.6274 10.6103 13.6668 10.5566C13.8137 10.3569 13.8903 10.1157 13.8903 9.87147C13.8903 9.61198 13.8048 9.35862 13.6417 9.15191L13.562 9.05976L13.3384 8.82105C12.5714 8.00358 10.5644 6.65578 9.53923 6.25744C9.31373 6.16832 9.05944 6.08293 8.87143 6.05448Z" fill="url(#paint0_linear_3_2)"/>
</g>
<defs>
<linearGradient id="paint0_linear_3_2" x1="18.5" y1="15.5" x2="-1.78814e-07" y2="2.5" gradientUnits="userSpaceOnUse">
<stop stop-color="#06C149"/>
<stop offset="1" stop-color="#33EB75"/>
</linearGradient>
<clipPath id="clip0_3_2">
<rect width="20" height="20" fill="white"/>
</clipPath>
</defs>
</svg>
