<svg width="20" height="20" viewBox="0 0 20 20" fill="none" xmlns="http://www.w3.org/2000/svg">
<path fill-rule="evenodd" clip-rule="evenodd" d="M10.6161 2.17328e-07H9.38106C8.6855 2.17328e-07 8.01861 0.271551 7.52796 0.754574C7.09307 1.1827 6.82704 1.74716 6.77575 2.34781L6.76724 2.54181C6.75775 3.17352 6.24742 3.66634 5.62101 3.66628C5.47895 3.6648 5.33141 3.63238 5.19559 3.5713L5.06235 3.50171C3.83155 2.81017 2.23128 3.23376 1.50918 4.46166L0.859895 5.50695C0.169493 6.68048 0.510007 8.15476 1.62449 8.91408L1.77948 9.01151C2.16149 9.22838 2.37987 9.59896 2.37987 10C2.37987 10.3688 2.19491 10.7137 1.88645 10.9228L1.78115 10.9875C0.626514 11.6412 0.171573 13.0841 0.751966 14.2844L0.83679 14.4442L1.47412 15.5224C1.80539 16.1083 2.37306 16.5497 3.04445 16.7366C3.63953 16.9023 4.2746 16.8565 4.83762 16.6084L5.01565 16.5213C5.31529 16.3516 5.62484 16.3109 5.91538 16.3871C6.20591 16.4633 6.45336 16.65 6.6027 16.9057C6.68504 17.0418 6.73337 17.1822 6.75063 17.3277L6.75912 17.4753C6.75765 18.8493 7.93219 20 9.38106 20H10.6164C11.9845 20 13.12 18.9703 13.231 17.6414L13.2391 17.4698C13.2383 17.1379 13.3582 16.8524 13.5727 16.6422C13.7872 16.432 14.0786 16.3146 14.382 16.316C14.5214 16.3199 14.6746 16.3541 14.8166 16.4163L14.9527 16.485C16.1011 17.1344 17.6058 16.8008 18.3808 15.7089L18.4803 15.557L19.1399 14.4804C19.495 13.8833 19.5912 13.1817 19.4119 12.523C19.253 11.9391 18.8887 11.4297 18.3843 11.0841L18.2174 10.9793C17.9272 10.8149 17.736 10.5708 17.658 10.2844C17.58 9.99795 17.6218 9.69291 17.7742 9.43678C17.8585 9.29258 17.9706 9.17256 18.1051 9.08068L18.3624 8.92228C19.4043 8.22927 19.7945 6.86519 19.2461 5.71842L19.1892 5.60674C19.1769 5.57762 19.1627 5.54922 19.1465 5.52174L18.5333 4.47928C17.8511 3.31918 16.3759 2.86897 15.146 3.4355L14.9821 3.51839C14.6882 3.68688 14.3779 3.72947 14.0857 3.65514C13.7935 3.58081 13.5435 3.39567 13.3908 3.14055C13.3124 3.01116 13.2641 2.87079 13.2468 2.72535L13.2383 2.57766C13.2599 1.94968 12.9925 1.27681 12.4983 0.778711C12.0041 0.280615 11.3251 -0.000285223 10.6161 2.17328e-07ZM9.38106 1.44774H10.6164C10.9264 1.44761 11.2229 1.57029 11.4387 1.78783C11.6546 2.00537 11.7713 2.29923 11.7624 2.60249L11.7756 2.85454C11.8203 3.23984 11.9357 3.57504 12.1181 3.87616C12.4673 4.45965 13.0423 4.88546 13.7143 5.05641C14.3863 5.22736 15.1001 5.12941 15.6983 4.78415L15.8015 4.73265L15.9125 4.6891C16.4009 4.52853 16.9764 4.73175 17.253 5.20208L17.8378 6.19726L17.8505 6.22529L17.9212 6.35884C18.1578 6.85504 17.9601 7.4827 17.448 7.77613L17.2873 7.87532C16.9464 8.10733 16.6849 8.38716 16.4946 8.71262C16.1471 9.29707 16.0509 9.99866 16.2302 10.6574C16.3932 11.2563 16.7716 11.7748 17.2922 12.1195L17.5645 12.2882C17.7566 12.4207 17.915 12.6422 17.9841 12.896C18.0621 13.1824 18.0203 13.4875 17.868 13.7436L17.2236 14.7957L17.1511 14.9067C16.8529 15.3258 16.2647 15.4814 15.7687 15.2682L15.4528 15.11C15.1004 14.9547 14.7556 14.8778 14.4053 14.8686C13.6914 14.865 13.0212 15.1351 12.5279 15.6185C12.0345 16.1019 11.7588 16.7585 11.7621 17.4421L11.7565 17.5511C11.7099 18.1023 11.2137 18.5523 10.6164 18.5523H9.38106C8.79047 18.5523 8.30426 18.1145 8.24205 17.552L8.2219 17.1985C8.17721 16.8132 8.06179 16.478 7.87937 16.1768C7.54028 15.5959 6.96861 15.1645 6.29737 14.9886C5.62614 14.8126 4.91096 14.9066 4.3108 15.2497L4.20208 15.3018C3.98569 15.3964 3.70831 15.4164 3.44842 15.344C3.1552 15.2624 2.90728 15.0696 2.75952 14.8084L2.13027 13.7449L2.07398 13.6383C1.83562 13.144 2.03354 12.5163 2.54639 12.2256L2.70219 12.1296C3.43413 11.634 3.85754 10.8446 3.85754 10C3.85754 9.14295 3.42197 8.34666 2.70395 7.871L2.44324 7.70925C1.98256 7.39466 1.83377 6.75044 2.13128 6.24455L2.78057 5.19925C3.1049 4.64815 3.8038 4.46315 4.3519 4.77085L4.54427 4.87026C4.90355 5.03293 5.25588 5.11034 5.61326 5.11398C6.99969 5.11416 8.13339 4.07087 8.23685 2.7415L8.25028 2.43661C8.27058 2.20741 8.38625 1.96196 8.57533 1.77582C8.78866 1.56581 9.07863 1.44774 9.38106 1.44774ZM10.0032 6.73182C8.16095 6.73182 6.66748 8.19503 6.66748 10C6.66748 11.805 8.16095 13.2682 10.0032 13.2682C11.8455 13.2682 13.339 11.805 13.339 10C13.339 8.19503 11.8455 6.73182 10.0032 6.73182ZM10.0032 8.17956C11.0294 8.17956 11.8613 8.9946 11.8613 10C11.8613 11.0054 11.0294 11.8204 10.0032 11.8204C8.97705 11.8204 8.14516 11.0054 8.14516 10C8.14516 8.9946 8.97705 8.17956 10.0032 8.17956Z" fill="#9E9E9E"/>
</svg>
